<svg xmlns="http://www.w3.org/2000/svg" width="228" height="50.75" viewBox="0 0 228 50.75"><g fill-rule="evenodd" clip-rule="evenodd"><path d="M105.662 36.247c-.933 0-1.82.002-2.706 0-1.118-.004-2.235.015-3.352-.023-4.224-.143-7.56-3.578-7.58-7.803-.014-3.396-.003-6.794-.003-10.192 0-.09.01-.183 0-.273-.014-.215.045-.34.298-.338.958.008 1.915.008 2.873 0 .236-.002.33.09.314.32-.01.16-.002.32-.002.48-.008 3.33.038 6.66-.042 9.988-.063 2.65 1.978 4.468 4.256 4.66 1.858.157 3.738.077 5.607.106.25.005.392-.07.37-.347-.015-.16-.003-.32-.003-.48v-13.82c0-.16.015-.32-.003-.48-.037-.316.065-.44.41-.432.89.024 1.778.026 2.667 0 .358-.01.41.136.406.44-.014 1.325-.006 2.648-.008 3.97-.01 4.72.004 9.44-.036 14.163-.02 2.305-.985 4.184-2.827 5.585-1.21.918-2.61 1.267-4.105 1.27-3.077.005-6.157.003-9.235-.002-.295 0-.588-.038-.933-.063v-2.608c-.002-.212.114-.27.302-.268.273.002.546-.014.82-.014 2.92-.002 5.84-.06 8.757.02 1.85.05 3.795-1.53 3.76-3.855zm9.064-6.057c0 1.85 0 3.696-.002 5.543-.002.475-.01.49-.484.496-.89.01-1.778-.016-2.667.01-.357.01-.412-.14-.41-.443.014-1.12.005-2.236.007-3.354.003-2.44-.03-4.882.022-7.32.092-4.153 3.45-7.442 7.615-7.502 1.024-.014 2.05-.066 3.07.117 3.39.606 6.056 3.548 6.29 6.992.044.68.03 1.366.032 2.05v8.69c0 .16-.007.32 0 .48.006.2-.084.283-.286.28-.957-.003-1.915-.005-2.873.003-.245.002-.317-.11-.305-.332.008-.16 0-.32 0-.48 0-3.374-.047-6.75.017-10.125.047-2.528-1.913-4.436-4.438-4.644-1.376-.113-2.688.11-3.822.965-1.14.858-1.786 1.976-1.77 3.444.017 1.71.003 3.42.003 5.13zm49.37-12.58c-.495 1.267-.95 2.428-1.402 3.59-1.878 4.812-3.754 9.624-5.635 14.436-.27.686-.127.604-.86.61-.5.004-1.005-.028-1.502.01-.395.03-.557-.126-.69-.478-.868-2.275-1.76-4.54-2.642-6.81-1.377-3.543-2.753-7.084-4.127-10.627-.08-.206-.147-.42-.254-.73h2.902c.547.004.55.004.767.543 1.53 3.8 3.058 7.602 4.59 11.4.08.204.174.403.31.716.25-.61.454-1.105.652-1.6 1.388-3.49 2.77-6.98 4.167-10.464.258-.64.096-.594.872-.596.908-.002 1.82 0 2.846 0zm1.598 9.252c0-2.895-.002-5.79 0-8.685 0-.547.006-.556.555-.56.796-.01 1.594-.01 2.39 0 .53.006.578-.108.57.545-.003.41 0 .82 0 1.23v16.002c0 .16-.01.32.003.48.02.26-.083.364-.352.362-.933-.01-1.87-.015-2.802.002-.322.005-.38-.146-.37-.417.015-.41.004-.82.004-1.23v-7.727z"/><path fill="#ED3237" d="M167.385 16.62h-1.363c-.224.002-.33-.1-.33-.33.006-.795.006-1.59 0-2.387 0-.23.105-.332.326-.332.956.003 1.91.003 2.866 0 .22 0 .33.1.33.33-.007.797-.007 1.59-.002 2.39 0 .227-.1.332-.325.33h-1.502z"/><path d="M188.466 11.436c0-.52-.007-.54-.505-.548-.84-.015-1.685.003-2.527-.003-.574-.005-.508.052-.508.538v5.404c-.002.89.07.78-.75.783-1.756.006-3.512-.015-5.267.015-4.163.07-7.532 3.386-7.68 7.557-.04 1.162-.04 2.327 0 3.488.124 3.54 2.553 6.482 5.997 7.33 1.26.31 2.534.26 3.807.23 1.672-.04 3.177-.58 4.473-1.635 2-1.63 2.96-3.76 2.963-6.33V18.62c0-2.396.003-4.79 0-7.184zm-7.97 21.682c-.936-.002-1.87.04-2.763-.317-1.452-.58-2.514-1.527-2.94-3.087-.085-.313-.102-.628-.103-.947-.002-1.14.044-2.28-.01-3.416-.098-1.98 1.18-3.58 2.992-4.282.533-.206 1.088-.33 1.664-.34 1.685-.027 3.37-.06 5.054-.08.522-.008.53.002.532.51.004 1.275 0 2.55 0 3.826 0 1.207-.012 2.414.003 3.62.034 2.883-2.41 4.517-4.43 4.514zM89.72 20.204v-4.79c0-1.368-.01-2.737.008-4.105.004-.33-.09-.437-.42-.43-.866.02-1.732-.01-2.6 0-.545.01-.55.028-.55.57-.003 1.85-.002 3.696 0 5.543 0 .71.014.61-.637.613-1.777.005-3.557-.014-5.336.015-4.273.07-7.692 3.536-7.722 7.81-.007.98-.006 1.96 0 2.94.02 3.657 2.44 6.72 5.995 7.625 1.233.313 2.488.256 3.74.234 4.284-.07 7.42-3.617 7.497-7.476.056-2.85.01-5.702.01-8.553.007.003.013.003.02.003zm-3.563 4.92c0 1.21-.02 2.418.004 3.627.047 2.388-2.01 4.236-4.16 4.348-1 .053-2.003.075-2.974-.28-1.54-.562-3.18-1.964-3.107-4.358.03-.98.004-1.962.005-2.943.003-2.68 1.814-4.615 4.51-4.77 1.16-.07 2.325-.058 3.488-.08.592-.01 1.187.003 1.778-.03.35-.018.47.083.467.45-.02 1.345-.01 2.69-.01 4.037zm122.066 9.023c0-.933 0-.936-.94-.94-2.69-.01-5.383-.02-8.073-.026-1.396-.003-2.655-.4-3.713-1.327-.76-.666-1.258-1.485-1.396-2.606h.76c2.327-.012 4.654-.02 6.98-.035 1.036-.005 2.036-.187 2.98-.632 3.406-1.606 4.46-5.744 2.17-8.62-1.19-1.495-2.782-2.272-4.684-2.325-1.847-.05-3.694-.01-5.542-.017-.46-.002-.912.054-1.356.152-2.744.605-4.794 2.912-4.763 5.725.02 1.665-.02 3.33.01 4.995.074 4.327 3.437 7.706 7.754 7.763 3.032.04 6.066.015 9.1.017.138 0 .274-.015.41-.007.245.013.31-.107.307-.333-.01-.594-.003-1.187-.003-1.78zm-14.15-10.67c.043-1.452.693-2.283 2.087-2.672.637-.178 1.288-.285 1.952-.303 1.502-.042 3.01-.115 4.482.286.894.243 1.676.674 1.955 1.627.52 1.792-.06 2.982-1.727 3.483-.79.237-1.6.35-2.423.354-.888.005-1.777 0-2.666.002-1.07 0-2.143-.013-3.213.008-.355.007-.473-.097-.46-.46.026-.775-.01-1.55.014-2.325zm-46.607 6.783c-.042-1.596 0-3.193-.01-4.79-.022-4.322-3.43-7.784-7.75-7.846-2.395-.034-4.79-.012-7.185-.014-.66 0-1.32-.012-1.98.005-.64.017-.638-.14-.638.61.002.525 0 1.05 0 1.574 0 .86 0 .865.864.87 2.736.02 5.473.045 8.21.047 1.03 0 1.99.227 2.868.756 1.167.704 1.947 1.69 2.156 3.073-.228.14-.46.08-.682.083-2.372.022-4.743.04-7.116.056-.593.005-1.182.055-1.76.2-2.406.596-4.254 2.65-4.51 4.942-.37 3.335 2.216 6.157 5.522 6.39 2.137.15 4.29.14 6.43 0 3.146-.205 5.67-2.783 5.584-5.96zm-3.42-2.202c-.028.797.01 1.596-.013 2.394-.034 1.35-.642 2.146-1.94 2.574-1.122.37-2.286.375-3.45.386-1.072-.01-2.143-.03-3.186-.327-1.387-.396-2.07-1.274-2.09-2.675-.017-1.076.462-1.828 1.45-2.254.85-.367 1.756-.504 2.667-.52 2.028-.032 4.06-.01 6.088-.025.337-.002.49.067.475.45zm82.948-2.694c-.033-3.756-2.787-6.978-6.486-7.62-1.135-.198-2.273-.14-3.41-.118-3.406.063-6.43 2.44-7.355 5.72-.33 1.165-.263 2.348-.27 3.358 0 .72-.006 1.266 0 1.813.034 3.493 2.464 6.6 5.848 7.445 1.66.416 3.35.386 5.025.154 3.754-.518 6.614-3.81 6.65-7.606.008-1.048.008-2.097 0-3.146zm-3.453 2.985c0 2.266-1.143 3.89-3.317 4.512-1.61.46-3.248.47-4.79-.314-1.64-.835-2.54-2.157-2.513-4.046.008-.523 0-1.047 0-1.57 0-.57.007-1.14 0-1.71-.02-1.455.604-2.594 1.74-3.46.834-.634 1.79-.985 2.843-1.028 1.21-.05 2.41-.04 3.527.554 1.627.868 2.528 2.17 2.513 4.053-.01 1 0 2.005-.002 3.007z"/><path fill="#72C9F6" d="M10.406 41.18c2.515-2.35 5.153-4.553 7.925-6.59 2.304-1.694 4.686-3.27 7.177-4.67 2.158-1.218 4.384-2.288 6.683-3.215 1.42-.574 2.843-1.146 4.3-1.625 2.305-.757 4.654-1.345 7.032-1.813 1.304-.257 2.616-.47 3.935-.64.966-.123 1.932-.237 2.902-.316 1.052-.084 2.105-.164 3.162-.222.546-.03 1.093-.03 1.64-.06.83-.045 1.663-.065 2.496-.05 1.01.017 2.02.028 3.03.077.913.043 1.824.136 2.737.197.175.012.22.087.218.246-.01.547-.02 1.093-.065 1.64-.014.16-.09.202-.23.19-.27-.023-.543-.053-.815-.066-1.164-.058-2.33-.065-3.495-.104-1.345-.045-2.688.02-4.03.045-1.02.022-2.042.07-3.06.178-.673.07-1.35.1-2.023.166-.78.08-1.556.186-2.334.27-.895.095-1.79.23-2.677.38-1.405.234-2.803.503-4.19.82-2.297.52-4.56 1.155-6.78 1.94-2.187.773-4.336 1.637-6.433 2.635-2.798 1.333-5.484 2.858-8.097 4.52-2.15 1.37-4.226 2.843-6.248 4.39-.802.615-1.58 1.26-2.37 1.895-.055.043-.116.082-.174.122-.18-.044-.26-.152-.216-.335zM8.09 39.402c.59-.688 1.202-1.353 1.84-1.995.827-.838 1.654-1.677 2.5-2.498 1.623-1.576 3.318-3.07 5.063-4.51 2.124-1.75 4.325-3.394 6.626-4.903 2.09-1.373 4.25-2.63 6.51-3.703 2.56-1.215 5.145-2.36 7.85-3.217 2.358-.747 4.746-1.367 7.175-1.84 1.363-.265 2.732-.5 4.107-.686.94-.126 1.885-.232 2.83-.315.924-.082 1.848-.15 2.772-.217 2.28-.17 4.565-.145 6.85-.11.38.005.76.055 1.14.056.174 0 .227.077.225.24-.006.535-.006 1.07 0 1.607 0 .168-.06.24-.23.23-.428-.03-.857.015-1.283-.054-.105-.017-.214-.012-.32-.012-.894 0-1.788-.02-2.68.003-1.2.03-2.402.07-3.6.144-1.126.07-2.252.16-3.373.283-1.38.15-2.757.325-4.13.537-2.173.336-4.323.766-6.456 1.295-2.9.72-5.732 1.647-8.496 2.786-1.42.585-2.824 1.204-4.195 1.894-2.31 1.164-4.54 2.462-6.7 3.88-2.11 1.383-4.152 2.864-6.126 4.437-1.422 1.136-2.81 2.314-4.16 3.538-1.064.97-2.105 1.965-3.116 2.992-.09.093-.175.194-.262.29-.176.082-.297.033-.364-.15zm1.317.732c.07-.064.144-.125.21-.193 1.15-1.17 2.345-2.3 3.563-3.4 1.482-1.34 3.008-2.634 4.58-3.867 1.847-1.447 3.742-2.824 5.714-4.096 2.112-1.362 4.282-2.626 6.56-3.69 2.737-1.28 5.515-2.464 8.412-3.344 2.104-.64 4.234-1.166 6.394-1.584 1.225-.238 2.453-.448 3.687-.615.94-.127 1.885-.232 2.83-.326 1.028-.104 2.06-.188 3.09-.25 1.115-.07 2.232-.115 3.353-.1 1.237.012 2.477-.01 3.715.03.64.02 1.28.035 1.92.115.15.02.21.068.207.22-.007.547-.014 1.095-.01 1.642.002.182-.084.236-.24.212-.662-.1-1.33-.034-1.993-.105-.12-.012-.24-.02-.36-.02-1.226 0-2.452-.02-3.677.005-1.083.02-2.164.07-3.243.14-1.124.073-2.25.162-3.372.285-1.356.15-2.71.326-4.058.536-2.42.377-4.81.88-7.176 1.504-2.29.605-4.528 1.36-6.73 2.228-1.686.663-3.34 1.393-4.953 2.208-3.265 1.648-6.372 3.563-9.355 5.683-2.047 1.457-4.023 3.004-5.94 4.626-.943.8-1.876 1.613-2.764 2.475-.25.036-.322-.12-.362-.318z"/><path fill="#ED3237" d="M9.407 40.134c.104.125.226.23.36.316l.64.73c.044.128.12.235.214.333.273.545.51 1.1.614 1.704.456 2.638-1.17 5.082-3.565 5.698-2.187.563-4.46-.505-5.478-2.59-1.224-2.512-.176-5.56 2.322-6.732 1.03-.483 2.1-.563 3.2-.28.126.032.254.06.38.09.11.08.228.136.362.152.318.193.636.385.953.58z"/><path fill="#1091D2" d="M10.445 34.884c-.047-.057-.082-.09-.106-.13-.18-.3-.218-.222.037-.503 1.608-1.772 3.313-3.45 5.086-5.06 2.888-2.62 5.935-5.04 9.224-7.14 3.925-2.51 8.098-4.523 12.456-6.155 2.844-1.065 5.74-1.958 8.708-2.604.245-.052.49-.092.733-.154.153-.04.242-.01.31.14.26.575.53 1.144.8 1.722-.162.125-.35.103-.52.135-4.572.868-8.99 2.25-13.304 3.99-6.614 2.67-12.604 6.368-18.076 10.924-1.785 1.486-3.522 3.025-5.167 4.666-.05.052-.104.1-.183.172zM46.042 11.94c-.722.176-1.438.342-2.15.528-5.11 1.338-10.066 3.104-14.79 5.49-3.603 1.818-6.96 4.028-10.168 6.466-3.323 2.524-6.466 5.255-9.4 8.224-.064.066-.116.154-.218.176-.23-.332-.232-.336-.005-.592 4.633-5.2 9.777-9.817 15.64-13.592 5.78-3.718 12-6.447 18.64-8.21.32-.086.646-.16.97-.24.137-.033.246-.03.34.105.365.516.738 1.024 1.107 1.536.018.028.022.066.036.11zm-2.14-2.878c-.08.11-.184.104-.273.13-4.81 1.37-9.458 3.146-13.927 5.387-3.924 1.964-7.533 4.412-10.963 7.136-3.482 2.766-6.765 5.754-9.825 8.98-.05.052-.1.105-.15.153-.016.013-.042.013-.063.02-.232-.373-.235-.376-.01-.634 3.995-4.563 8.32-8.776 13.15-12.458 3.478-2.652 7.228-4.86 11.17-6.74 2.84-1.352 5.745-2.535 8.755-3.456.616-.188.42-.227.88.223.423.416.838.84 1.255 1.255zM41.04 6.418c-.09.087-.21.1-.317.137-4.927 1.737-9.68 3.854-14.194 6.492-3.31 1.934-6.383 4.202-9.32 6.655-3.174 2.652-6.163 5.5-8.924 8.584-.047.054-.1.1-.15.15-.008.005-.023 0-.047.003-.123-.26-.14-.473.074-.73 4.212-5.095 8.86-9.738 14.177-13.684 4.28-3.178 8.91-5.758 13.81-7.85.866-.37 1.74-.71 2.625-1.034.206-.076.363-.08.555.058.49.358 1.003.686 1.504 1.028.075.054.173.083.205.19zM14.427 39.966c.662-.498 1.265-.963 1.88-1.41 3.735-2.71 7.657-5.11 11.816-7.12 4.512-2.182 9.23-3.737 14.146-4.695 1.74-.337 3.487-.615 5.247-.825.556-.066 1.113-.11 1.67-.153.23-.017.246.007.22.238-.056.46-.128.918-.176 1.38-.02.172-.08.236-.257.255-.698.072-1.394.162-2.09.25-2.007.252-3.997.603-5.977 1.016-3.146.658-6.24 1.504-9.264 2.605-4.455 1.625-8.662 3.752-12.69 6.244-1.285.795-2.548 1.626-3.777 2.505-.276.196-.21.193-.463-.035-.077-.074-.157-.143-.286-.254zm1.486 1.246c.657-.505 1.285-.955 1.923-1.393 3.67-2.52 7.53-4.697 11.65-6.398C33.558 31.74 37.77 30.54 42.1 29.74c2.083-.384 4.177-.692 6.285-.895.775-.074.607-.098.51.554-.057.374-.2.73-.328 1.09-.064.18-.155.25-.355.27-4.678.428-9.288 1.235-13.806 2.53-4.398 1.26-8.588 3.03-12.604 5.217-1.705.928-3.38 1.905-4.998 2.98-.17.11-.303.155-.472.01-.116-.104-.254-.177-.42-.286zM37.543 4.28c-.918.406-1.804.786-2.68 1.188C27.91 8.664 21.51 12.71 15.82 17.858c-2.827 2.56-5.535 5.233-8.046 8.104-.03.035-.057.075-.132.18-.024-.39-.102-.683.136-.968 4.085-4.92 8.51-9.504 13.504-13.518 2.574-2.07 5.355-3.838 8.216-5.484 1.732-.997 3.498-1.934 5.296-2.81.224-.107.41-.12.637-.026.66.272 1.32.542 1.967.85.04.022.077.05.146.094zM17.774 42.537c4.315-2.812 8.784-5.165 13.567-6.91 5.37-1.96 10.92-3.095 16.572-3.626.102.108.042.17.016.23-.23.51-.472 1.013-.693 1.525-.082.188-.19.263-.398.28-4.067.31-8.07.984-12.01 2.033-3.33.885-6.547 2.084-9.674 3.53-2.172 1-4.303 2.083-6.365 3.296-.192.113-.334.123-.507-.018-.137-.11-.294-.196-.51-.338zM7.507 23.06c0-.254-.006-.487.003-.72.005-.14.12-.227.202-.327 1.29-1.592 2.63-3.14 4.01-4.653 2.057-2.254 4.19-4.428 6.468-6.46 2.643-2.36 5.48-4.465 8.427-6.43 1.12-.746 2.256-1.462 3.408-2.157.184-.11.358-.162.572-.135.827.102 1.647.242 2.455.445.02.005.036.027.076.06-.08.108-.206.142-.313.197-3.29 1.703-6.472 3.59-9.53 5.686-3.082 2.113-5.92 4.52-8.63 7.09-2.42 2.295-4.73 4.696-6.927 7.21-.058.068-.106.15-.22.195zM20.48 43.952c7.986-4.858 16.612-7.64 25.88-8.62-.218.45-.466.84-.718 1.225-.16.25-.288.556-.533.706-.245.148-.577.104-.87.142-1.72.224-3.435.503-5.144.815-5.265.96-10.264 2.733-15.125 4.93-.77.348-1.53.713-2.29 1.08-.15.072-.28.098-.437.025-.238-.108-.485-.193-.763-.303zM8.014 19.117c.1-.41.18-.768.276-1.122.02-.075.087-.14.14-.205 2.976-3.554 6.058-7.01 9.51-10.117 1.956-1.762 4.02-3.395 6.148-4.944.156-.116.317-.19.513-.23.95-.173 1.908-.28 2.87-.325.08-.004.16 0 .324 0-.173.12-.274.192-.38.26-3.543 2.25-6.937 4.703-10.094 7.472-2.778 2.438-5.387 5.05-7.9 7.755-.372.4-.736.81-1.107 1.213-.07.077-.124.175-.3.24zm35.938 19.476c-.055.162-.148.222-.22.296-.492.5-.992.994-1.476 1.503-.157.166-.332.25-.554.28-1.896.265-3.776.624-5.645 1.047-2.977.674-5.863 1.634-8.712 2.717-.69.262-1.373.537-2.056.816-.176.072-.335.088-.52.037-.396-.113-.802-.206-1.21-.346 3.188-1.643 6.47-3.036 9.897-4.072 3.423-1.035 6.918-1.73 10.494-2.28zm-4.067 3.553c-1.42.954-2.87 1.73-4.43 2.29-2.477.892-5.04 1.243-7.653 1.136 1.085-.79 10.615-3.516 12.083-3.426zM20.512 3.84c-3.865 3.048-7.338 6.44-10.648 10.078 0-.197.087-.307.146-.422 1.544-3.013 3.7-5.486 6.495-7.406 1.158-.796 2.348-1.536 3.613-2.148.103-.05.197-.136.394-.103z"/></g></svg>