<?xml version="1.0" encoding="utf-8"?>
<!-- Generator: Adobe Illustrator 26.0.3, SVG Export Plug-In . SVG Version: 6.00 Build 0)  -->
<svg version="1.0" id="Layer_1" xmlns="http://www.w3.org/2000/svg" xmlns:xlink="http://www.w3.org/1999/xlink" x="0px" y="0px"
	 viewBox="0 0 256.8 202.1" style="enable-background:new 0 0 256.8 202.1;" xml:space="preserve">
<style type="text/css">
	.st0{fill:#E32118;}
	.st1{fill:none;stroke:#E32118;stroke-width:1.86;}
	.st2{fill:#FFFFFF;}
	.st3{fill:#FFE400;}
	.st4{fill:none;stroke:#FFE400;stroke-width:0.74;}
	.st5{fill:#009580;}
	.st6{fill:none;stroke:#009580;stroke-width:0.74;}
	.st7{fill:none;stroke:#FFE400;stroke-width:0.68;}
</style>
<path class="st0" d="M72.8,71.8c0,0-4.6-0.5-20.2-0.5h-0.2c-14.2,0-19.1,0.3-20.2,0.5c-0.5,0.1-0.8,0.4-0.9,0.9
	c0,0-0.1,13.5-0.1,22.6c2-0.1,8-0.3,21.4-0.3c13.2,0,19.1,0.2,21.1,0.3l-0.1-22.7C73.6,72.1,73.2,71.8,72.8,71.8"/>
<path class="st1" d="M72.8,71.8c0,0-4.6-0.5-20.2-0.5h-0.2c-14.2,0-19.1,0.3-20.2,0.5c-0.5,0.1-0.8,0.4-0.9,0.9
	c0,0-0.1,13.5-0.1,22.6c2-0.1,8-0.3,21.4-0.3c13.2,0,19.1,0.2,21.1,0.3l-0.1-22.7C73.6,72.1,73.3,71.8,72.8,71.8z"/>
<path class="st2" d="M52.5,127c0,0-14.1-7.2-17.6-12.7c-3.3-4.1-4.8-9.4-4.1-14.6v-3.8c0,0,18.4-0.3,21.9-0.3c0,0,18.8,0.2,21.6,0.2
	v5.1c0,0,1.2,8.3-4.5,13.9C69.7,114.9,63.9,121.6,52.5,127"/>
<path d="M101.1,80.6v-9.9H98V82c0,0.7,0,1.5-0.2,2.2c-0.4,1.6-1.5,2.4-3.6,2.4c-2,0-3-0.7-3.5-2.2c-0.2-0.7-0.2-1.5-0.2-2.2V70.7
	h-3.6V81c0,2.5,0.2,4.2,1,5.4c1,1.5,2.9,2.6,6.2,2.6c3.6,0,5.4-1.5,6.2-3.1C100.8,84.9,101.1,83.5,101.1,80.6"/>
<path d="M115.5,88.7v-7.9c0-0.9,0-1.7-0.2-2.6c-0.3-1.3-1.4-2.9-4.1-2.9c-1.5-0.1-2.9,0.5-3.9,1.6v-1.3h-3.5v13h3.6V78.1
	c0.6-0.3,1.3-0.4,2-0.4c1.1-0.2,2.2,0.6,2.4,1.7c0.1,0.6,0.1,1.2,0.1,1.8v7.5L115.5,88.7 M122.3,71.9c0-1-0.8-1.8-1.8-1.8
	c-0.1,0-0.1,0-0.2,0c-1-0.1-2,0.6-2.1,1.6c0,0.1,0,0.2,0,0.3c0,1,0.8,1.8,1.8,1.8c0.1,0,0.1,0,0.2,0c1,0.1,2-0.6,2.1-1.6
	C122.3,72.1,122.3,72,122.3,71.9 M122,75.7h-3.6v13h3.6L122,75.7z M136.4,75.7h-3.2l-2.5,8.4l-0.5,1.6c0,0-0.1-0.6-0.4-1.6l-2.5-8.5
	h-3.9l4.6,13.1h3.5L136.4,75.7z M148.6,82.4v-0.2c0.1-1.5-0.2-3-0.8-4.4c-0.8-1.4-2.2-2.4-4.7-2.4c-5.3,0-6.2,4.4-6.2,6.8
	c0,5.2,3.2,6.7,6.8,6.7c1.5,0.1,3.1-0.2,4.5-0.8l-0.7-2c-0.9,0.4-1.8,0.6-2.8,0.6c-2.1,0.2-4-1.4-4.2-3.5c0-0.2,0-0.4,0-0.6v-0.2
	L148.6,82.4z M145.1,80.6h-4.6c0-0.5,0-1,0.2-1.5c0.1-1.1,1.1-2,2.2-1.9c1.5,0,2.2,1,2.2,2.9V80.6z M159.1,75.8
	c-0.5-0.2-1.1-0.3-1.7-0.3c-1.3,0-2.5,0.8-3.1,1.9v-1.7h-3.5v13h3.6V78.5c0.6-0.3,1.2-0.5,1.9-0.4c0.8,0,1.5,0.2,2.1,0.6L159.1,75.8
	z"/>
<path d="M168.8,84.8c0-1.8-0.9-2.8-2.4-3.6l-1.9-0.9c-1-0.5-1.5-0.8-1.5-1.6c0-1,0.9-1.3,2-1.3c1,0,2,0.2,2.8,0.7l0.7-2
	c-1.3-0.5-2.6-0.7-4-0.7c-2.9,0-4.7,1.2-4.7,3.7c0,1.8,0.9,2.8,2.6,3.7l1.9,1c0.9,0.5,1.2,0.7,1.2,1.5c0,1-0.8,1.4-2.2,1.4
	c-1.1,0-2.3-0.2-3.3-0.7l-0.7,2c1.4,0.6,2.9,0.9,4.4,0.8C166.5,88.9,168.8,87.8,168.8,84.8 M175.1,71.9c0-1-0.8-1.8-1.8-1.8
	c-0.1,0-0.1,0-0.2,0c-1-0.1-2,0.6-2.1,1.6c0,0.1,0,0.2,0,0.3c0,1,0.8,1.8,1.8,1.8c0.1,0,0.1,0,0.2,0c1,0.1,2-0.6,2.1-1.6
	C175.1,72.1,175.1,72,175.1,71.9 M174.8,75.6h-3.6v13h3.6L174.8,75.6z M186,88.3l-0.6-2c-0.5,0.2-1,0.4-1.5,0.4
	c-1.7,0-1.8-1.1-1.8-2.4v-6.6h3.8v-1.9H182v-3h-2.3v0.2c-0.2,1.4-1.2,2.5-2.5,3l-0.4,0.1v1.6h1.6v6.5c0,0.9,0,1.8,0.2,2.7
	c0.6,1.6,1.9,2.1,4,2.1C183.8,88.9,184.9,88.7,186,88.3"/>
<path d="M199.4,75.7h-3.2l-2.4,8.5c-0.2,0.7-0.4,1.6-0.4,1.6c-0.1-0.6-0.2-1.1-0.4-1.6l-2.6-8.5h-3.9l5.2,13.7l-0.4,1.2
	c-0.4,1.2-1,1.8-2.1,1.8c-0.5,0-1-0.1-1.4-0.3l-0.4,2.1c0.7,0.2,1.5,0.4,2.2,0.3c2.1,0,3.4-0.9,4.3-3.4L199.4,75.7"/>
<path d="M217,82c0-4.1-2.2-6.6-6.3-6.6c-4.8,0-6.6,3.4-6.6,7c0,4.1,2.2,6.6,6.3,6.6C215.2,89,217,85.6,217,82 M213.3,82.3
	c0,3.1-0.7,4.7-2.7,4.7s-2.8-1.8-2.8-4.8s0.7-4.7,2.7-4.7S213.3,79.2,213.3,82.3 M226.8,69.4c-0.8-0.3-1.7-0.5-2.6-0.4
	c-2.4,0-3.8,1-4.3,2.8c-0.2,1.1-0.3,2.2-0.2,3.2v0.7h-1.6v1.9h1.6v11.1h3.5V77.6h2.7v-1.9h-2.7v-1.9c-0.1-0.7,0-1.4,0.3-2
	c0.3-0.5,0.9-0.8,1.5-0.8c0.5,0,0.9,0.1,1.3,0.3L226.8,69.4z"/>
<path d="M177.4,95.4c-2.1,0-3.5,1.2-3.5,3s1.3,2.9,3.3,2.9s3.5-1.2,3.5-3S179.4,95.4,177.4,95.4"/>
<path d="M118.6,103.9c-8.8,0-9.8,7.3-9.8,10.4c0,8.4,5.7,10.2,10.5,10.2c2.4,0.1,4.9-0.3,7.2-1.1c-0.1-0.3-0.8-2.6-1-3
	c-1.3,0.6-2.8,0.8-4.2,0.8c-4.4,0-6.4-2.9-6.4-5.8v-0.5h12.5v-0.1c0-2.2-0.1-5-1.2-7C124.8,105.1,122.4,103.9,118.6,103.9
	 M121.7,112.1h-6.8v-0.2c0-0.8,0-1.6,0.2-2.3c0.4-2.1,1.4-3.1,3.2-3.1c2.3,0,3.4,1.4,3.4,4.3L121.7,112.1L121.7,112.1z"/>
<path d="M100.3,112.2c3.5-1.1,5.8-4.4,5.6-8c0-3.4-2.4-6.4-5.7-7c-2.4-0.4-4.9-0.6-7.3-0.6c-2.8,0-5.2,0.1-5.9,0.2v27.3h5.7v-11h1.7
	c0,0,7.6,10.8,7.8,11h6.9l-9-11.8L100.3,112.2 M96.9,110.3c-0.8,0.2-1.6,0.2-2.4,0.2h-1.9V99.8h0.2c0.6-0.1,1.2-0.1,1.7-0.1
	c3.6,0,5.3,1.7,5.3,5.3C100,108.4,98.4,109.9,96.9,110.3"/>
<path d="M138.8,103.9c-2.5-0.1-5,0.3-7.4,1.1c0.1,0.4,0.9,2.7,1.1,3c1.5-0.6,3.1-0.9,4.7-0.9c1.2,0,2.9,0.2,3.5,1.7
	c0.3,0.7,0.4,1.5,0.3,2.2v1.5l-2.9-0.1c-2.2,0-4.6,0.1-6.4,1.4c-1.5,1.1-2.3,2.9-2.2,4.8c0,3.6,2.4,5.9,6.2,5.9s5-2,5.1-2l0.4-0.7
	v2.4h5.5V112c0.1-1.5-0.1-3.1-0.5-4.6C145.2,105,142.8,103.9,138.8,103.9 M141,121l-0.1,0.1c-0.7,0.3-1.5,0.4-2.2,0.4
	c-1.3,0-3.4-0.4-3.4-3.2c0-0.9,0.3-1.8,0.9-2.5c0.8-0.7,1.9-1.1,3-1h1.7h0.2L141,121L141,121z"/>
<rect x="174.4" y="104.3" width="5.9" height="19.8"/>
<path d="M159.3,104c-5.5,0-9.2,4.3-9.2,10.6s2.9,9.8,8,9.8c3.9,0,5.3-2.2,5.3-2.2l0.4-0.8v2.7h5.7V94h-5.9v11.1l-0.4-0.3
	C163.3,104.8,162.2,104,159.3,104 M163.7,107.2v13.1l-0.1,0.1c-0.8,0.4-1.7,0.6-2.5,0.5c-3.1,0-4.9-2.4-4.9-6.7
	c0-4.8,1.9-7.3,5.5-7.3c0.6,0,1.2,0.1,1.8,0.2L163.7,107.2z"/>
<path d="M196.9,103.9c-4.2,0-5.8,2.4-5.8,2.4l-0.4,0.7v-2.7H185v19.8h5.9v-16l0.1-0.1c0.8-0.4,1.8-0.6,2.7-0.6c2,0,3.2,0.8,3.6,2.4
	c0.1,0.8,0.2,1.6,0.2,2.4v11.8h6v-12c0-1.3-0.1-2.6-0.3-3.9C202.8,107,201.6,104,196.9,103.9"/>
<path d="M215,103.9c-5.8,0-8.4,3.3-8.4,6.7c-0.2,2.9,1.8,5.4,4.6,5.9l0.9,0.1l-0.8,0.3c-0.1,0-3,1.2-3,4.1c-0.1,1.1,0.5,2.2,1.6,2.7
	l0.8,0.4l-0.9,0.1c-0.2,0-4.2,0.5-4.2,4c0,4.1,5.2,4.7,8.3,4.7c2.1,0.1,4.2-0.2,6.2-0.9c5-1.7,5.8-5.1,5.8-7c0-4.4-3.4-4.9-6.3-4.9
	l-2.8,0.1h-1.6c-0.8,0-2.3,0-2.3-1.7c0-0.6,0.2-1.1,0.6-1.5l0.1-0.1l1.9,0.1c5.2,0,8.1-2.3,8.1-6.3c0-1.2-0.4-2.3-1.1-3.2l-0.4-0.4
	h4.1v-2.9h-7.8C217.1,104,216,103.9,215,103.9 M216.6,124.6c1.8,0,3.2,0,3.9,0.7c0.3,0.4,0.5,0.9,0.5,1.4c0,1.6-1,3.4-5.7,3.4
	c-2.3,0-4.9-0.3-4.9-3c0-1.1,0.7-2.1,1.6-2.5L216.6,124.6L216.6,124.6z M216.8,114.3L216.8,114.3c-0.5,0.3-1.1,0.4-1.7,0.4
	c-2,0-3.1-1.5-3.1-4.2c0-1.3,0.2-3,1.4-3.8c0.5-0.3,1.1-0.5,1.7-0.5c2,0,3.1,1.5,3.1,4.2C218.3,111.8,218.1,113.5,216.8,114.3"/>
<path d="M75,103.2l-0.1-30.8c-0.1-1-0.8-1.8-1.8-1.9c-0.1,0-4.7-0.5-20.5-0.5h-0.2c-14.2,0-19.4,0.3-20.5,0.5c-1,0.2-1.7,1-1.8,1.9
	c0,0.1-0.1,30.8-0.1,30.8c0,1.6,0.2,3.2,0.7,4.8c1.4,4.3,4.1,8.1,7.8,10.8c8,6.3,13.6,8.7,13.8,8.8s0.2,0.1,0.2,0.1
	c0.1,0,0.2,0,0.2-0.1c4.9-2.4,9.5-5.4,13.8-8.8c3.7-2.7,6.5-6.4,7.9-10.8C74.9,106.5,75.1,104.9,75,103.2 M31.3,72.6
	c0.1-0.5,0.4-0.8,0.9-0.9c1.1-0.2,6-0.5,20.2-0.5h0.2c15.6,0,20,0.4,20.1,0.5c0.5,0,0.9,0.4,1,0.9l0.1,22.6c-2-0.1-7.9-0.3-21.1-0.3
	c-13.5,0-19.4,0.2-21.4,0.3C31.3,86.2,31.4,72.6,31.3,72.6 M73.8,104.3l-0.1-0.1L73.8,104.3z M47.5,96L47.5,96l-0.1,0.1L47.5,96
	 M69.9,113.7c-0.2-0.4-0.6-0.7-1.1-0.7c-0.6,0-1.1,0.5-1.2,1.1c0,0.1,0,0.1-0.1,0.1s-0.1-0.1-0.1-0.1c-0.1-0.6-0.6-1.1-1.2-1.1
	c-0.6,0-1.1,0.5-1.2,1.1c0,0.1,0,0.1-0.1,0.1s-0.1-0.1-0.1-0.1c-0.1-0.7-0.7-1.1-1.4-1.1c-0.6,0.1-1,0.5-1.1,1.1
	c0,0.1,0,0.1-0.1,0.1s-0.1-0.1-0.1-0.1c-0.1-0.7-0.7-1.2-1.3-1.1c-0.6,0.1-1.1,0.5-1.1,1.1c0,0.1,0,0.1-0.1,0.1s-0.1-0.1-0.1-0.1
	c-0.1-0.7-0.7-1.2-1.3-1.1c-0.7,0.1-1.2,0.7-1.1,1.3c0.1,0.6,0.5,1,1.1,1.1c0.1,0,0.1,0,0.1,0.1s-0.1,0.1-0.1,0.1
	c-0.7,0.1-1.2,0.7-1.1,1.3c0.1,0.6,0.5,1.1,1.1,1.1c0.1,0,0.1,0.1,0.1,0.1s-0.1,0.1-0.1,0.1c-0.6,0.1-1.1,0.6-1.1,1.2
	c0,0.6,0.5,1.1,1.1,1.2c0.1,0,0.1,0.1,0.1,0.1s-0.1,0.1-0.1,0.1c-0.7,0.1-1.1,0.7-1.1,1.4c0.1,0.5,0.4,0.9,0.9,1l-0.7,0.5
	c-1.6,1-3.3,1.9-5,2.7c-1.7-0.8-3.4-1.7-5-2.7l-0.8-0.5c0.6-0.1,1-0.6,1-1.2c0-0.6-0.5-1.1-1.1-1.2c-0.1,0-0.1,0-0.1-0.1
	s0-0.1,0.1-0.1c0.7-0.1,1.1-0.7,1.1-1.4c-0.1-0.6-0.5-1-1.1-1.1c-0.1,0-0.1-0.1-0.1-0.1s0-0.1,0.1-0.1c0.7-0.1,1.1-0.7,1.1-1.4
	c-0.1-0.6-0.5-1-1.1-1.1c-0.1,0-0.1,0-0.1-0.1s0-0.1,0.1-0.1c0.6-0.1,1.1-0.6,1.1-1.2c0-0.7-0.6-1.2-1.2-1.2c-0.6,0-1.1,0.5-1.2,1.1
	c0,0.1,0,0.1-0.1,0.1c0,0-0.1-0.1-0.1-0.1c-0.1-0.7-0.7-1.1-1.4-1.1c-0.6,0.1-1,0.5-1.1,1.1c0,0.1-0.1,0.1-0.1,0.1s-0.1-0.1-0.1-0.1
	c-0.1-0.7-0.7-1.1-1.4-1.1c-0.6,0.1-1,0.5-1.1,1.1c0,0.1,0,0.1-0.1,0.1c-0.1,0-0.1-0.1-0.1-0.1c-0.1-0.7-0.7-1.1-1.4-1.1
	c-0.6,0.1-1,0.5-1.1,1.1c0,0.1,0,0.1-0.1,0.1c0,0-0.1-0.1-0.1-0.1c-0.1-0.6-0.6-1.1-1.2-1.1c-0.5,0-0.9,0.3-1.1,0.7
	c-2.1-2.6-3.4-5.8-3.8-9.2v-0.2l0,0l0.1-0.1c0.5-0.1,0.8-0.5,0.8-1l0,0c0-0.1,0-0.2,0.1-0.2c0,0,0.1,0.1,0.1,0.2
	c0.1,0.6,0.6,1.1,1.2,1.1c0.6,0,1.1-0.5,1.2-1.1c0-0.1,0-0.2,0.1-0.2c0,0,0.1,0.1,0.1,0.2c0.1,0.7,0.7,1.1,1.4,1.1
	c0.6-0.1,1-0.5,1.1-1.1c0-0.1,0-0.2,0.1-0.2c0.1,0,0.1,0.1,0.1,0.2c0.1,0.6,0.6,1.1,1.2,1.1c0.6,0,1.1-0.5,1.2-1.1
	c0-0.1,0.1-0.2,0.1-0.2s0.1,0.1,0.1,0.2c0.1,0.7,0.7,1.1,1.4,1.1c0.6-0.1,1-0.5,1.1-1.1c0-0.1,0-0.2,0.1-0.2c0,0,0.1,0.1,0.1,0.2
	c0.1,0.7,0.7,1.1,1.4,1.1c0.6-0.1,1-0.5,1.1-1.1c0-0.1,0-0.2,0.1-0.2c0,0,0.1,0.1,0.1,0.2c0.1,0.6,0.6,1.1,1.2,1.1
	c0.7,0,1.2-0.5,1.2-1.2c0-0.6-0.5-1.1-1.1-1.2c-0.1,0-0.1,0-0.1-0.1s0.1-0.1,0.1-0.1c0.6-0.1,1.1-0.6,1.1-1.2c0-0.6-0.5-1.1-1.1-1.2
	c-0.1,0-0.1-0.1-0.1-0.1s0.1-0.1,0.1-0.1c0.6-0.1,1-0.6,1.1-1.2c0-0.6-0.5-1.1-1.1-1.2c-0.1,0-0.1-0.1-0.1-0.1s0.1-0.1,0.1-0.1
	c0.4-0.1,0.7-0.3,0.9-0.6l0,0l4.9-0.1l5.1,0.1l0,0c0.2,0.3,0.5,0.6,0.9,0.6c0.1,0,0.1,0,0.1,0.1s-0.1,0.1-0.1,0.1
	c-0.6,0.1-1.1,0.6-1.1,1.3c0,0.6,0.4,1.1,1,1.2c0.1,0,0.1,0,0.1,0.1s-0.1,0.1-0.1,0.1c-0.7,0.1-1.1,0.7-1.1,1.4
	c0.1,0.6,0.5,1,1.1,1.1c0.1,0,0.1,0,0.1,0.1s-0.1,0.1-0.1,0.1c-0.7,0.1-1.1,0.7-1.1,1.4c0.1,0.7,0.7,1.1,1.4,1.1
	c0.6-0.1,1-0.5,1.1-1.1c0-0.1,0-0.2,0.1-0.2c0,0,0.1,0.1,0.1,0.2c0.1,0.7,0.7,1.1,1.4,1.1c0.6-0.1,1-0.5,1.1-1.1
	c0-0.1,0-0.2,0.1-0.2s0.1,0.1,0.1,0.2c0.1,0.6,0.6,1.1,1.2,1.1c0.6,0,1.1-0.5,1.2-1.1c0-0.1,0-0.2,0.1-0.2s0.1,0.1,0.1,0.2
	c0.1,0.7,0.7,1.1,1.4,1.1c0.6-0.1,1-0.5,1.1-1.1c0-0.1,0-0.2,0.1-0.2s0.1,0.1,0.1,0.2c0.1,0.6,0.6,1.1,1.2,1.1
	c0.6,0,1.1-0.5,1.2-1.1c0-0.1,0-0.2,0.1-0.2c0.1,0,0.1,0.1,0.1,0.2c0.1,0.6,0.6,1.1,1.2,1.1c0.6,0,1.1-0.5,1.2-1.1
	c0-0.1,0-0.2,0.1-0.2c0,0,0.1,0.1,0.1,0.2c0.1,0.5,0.5,0.9,0.9,1v0.2C73.3,107.9,72,111,69.9,113.7"/>
<path class="st3" d="M52.5,106.5c-0.6,0-1.1,0.5-1.1,1.2c0,0.6,0.5,1.1,1.2,1.1c0.6,0,1.1-0.5,1.1-1.1
	C53.7,107,53.1,106.5,52.5,106.5C52.5,106.5,52.5,106.5,52.5,106.5"/>
<path class="st4" d="M52.5,106.5c-0.6,0-1.1,0.5-1.1,1.2c0,0.6,0.5,1.1,1.2,1.1c0.6,0,1.1-0.5,1.1-1.1
	C53.7,107,53.1,106.5,52.5,106.5C52.5,106.5,52.5,106.5,52.5,106.5z"/>
<path class="st0" d="M56.9,106.8c-0.2-0.1-0.4-0.1-0.6-0.1l-0.3,0.1l-0.2,0.1l-0.5,0.2c-0.9,0.3-1.1,0.2-1.2,0.1v-0.1
	c0.1-0.1,0.3-0.3,0.9-0.6l0.5-0.2l0.2-0.1l0.3-0.1c0.2-0.1,0.4-0.2,0.4-0.4c0.3-0.8-0.3-1.6-1.1-2.2c-0.7-0.5-1.9-0.9-2.5-0.4
	c-0.2,0.1-0.3,0.3-0.3,0.5v0.3v0.3v0.6c0,1-0.2,1.1-0.3,1.1h-0.1c-0.2-0.2-0.2-0.8-0.2-1v-0.6v-0.3v-0.3c0-0.2-0.1-0.4-0.3-0.5
	c-0.5-0.5-1.7-0.2-2.5,0.4c-0.8,0.6-1.4,1.3-1.1,2.2c0.1,0.2,0.2,0.4,0.4,0.4l0.3,0.1l0.2,0.1l0.5,0.2c0.5,0.2,0.8,0.4,0.9,0.6v0.1
	c0,0.1-0.2,0.3-1.2-0.1l-0.5-0.2l-0.2-0.1l-0.3-0.1c-0.2-0.1-0.4,0-0.6,0.1c-0.6,0.3-0.7,1.1-0.4,2.3c0.2,1,0.9,1.9,1.6,1.9
	c0.2,0,0.4-0.1,0.6-0.2l0.2-0.3l0.1-0.2l0.4-0.4c0.2-0.2,0.6-0.7,0.9-0.7h0.1l0.1,0.1c0,0.2-0.3,0.6-0.4,0.8v0.1l-0.4,0.4l-0.2,0.2
	l-0.1,0.2c-0.1,0.2-0.2,0.4-0.1,0.6c0.1,0.7,1.2,1.1,2.2,1.2s1.9-0.2,2.1-1.1c0.1-0.2,0.1-0.4-0.1-0.6l-0.2-0.2l-0.2-0.2l-0.3-0.5
	l-0.1-0.1c-0.1-0.2-0.4-0.6-0.4-0.8l0.1-0.1h0.1c0.1,0,0.4,0.1,0.9,0.8l0.4,0.4l0.1,0.2l0.2,0.3c0.1,0.2,0.4,0.2,0.6,0.2
	c0.7,0,1.4-0.9,1.6-1.9c0.1-0.3,0.1-0.7,0.2-1c0.1-0.5-0.2-1-0.6-1.3 M52.5,108.9c-0.6,0-1.1-0.5-1.1-1.2s0.5-1.1,1.2-1.1
	c0.6,0,1.1,0.5,1.1,1.1C53.7,108.4,53.1,108.9,52.5,108.9C52.5,108.9,52.5,108.9,52.5,108.9"/>
<path class="st5" d="M56.3,106.3c-0.2,0.1-0.4,0.1-0.5,0.2c-0.2,0-0.5,0.2-0.7,0.2c-0.4,0.2-0.7,0.3-0.7,0.5
	c0.1,0.1,0.4,0.1,0.8-0.1l0.7-0.3c0.3-0.1,0.3-0.2,0.5-0.2c0.3-0.1,0.6-0.1,0.8,0.1c0.2,0.2,0.3,0.2,0.4,0.4c0.5-0.5,1-1,1.6-1.4
	c-0.8,0-1.5,0-2.2-0.2c0,0.1,0,0.2,0,0.2C56.8,106,56.6,106.2,56.3,106.3"/>
<path class="st6" d="M56.3,106.3c-0.2,0.1-0.4,0.1-0.5,0.2c-0.2,0-0.5,0.2-0.7,0.2c-0.4,0.2-0.7,0.3-0.7,0.5
	c0.1,0.1,0.4,0.1,0.8-0.1l0.7-0.3c0.3-0.1,0.3-0.2,0.5-0.2c0.3-0.1,0.6-0.1,0.8,0.1c0.2,0.2,0.3,0.2,0.4,0.4c0.5-0.5,1-1,1.6-1.4
	c-0.8,0-1.5,0-2.2-0.2c0,0.1,0,0.2,0,0.2C56.8,106,56.6,106.2,56.3,106.3z"/>
<path class="st5" d="M52.4,103.6c0,0.2,0,0.2,0,0.6s0,0.6,0,0.8c0,0.4,0,0.8,0.2,0.8s0.2-0.3,0.2-0.8c0-0.2,0-0.6,0-0.8s0-0.3,0-0.6
	c0-0.3,0.1-0.5,0.3-0.7c0.1-0.1,0.2-0.2,0.4-0.2c-0.3-0.6-0.6-1.2-0.8-1.8c-0.2,0.6-0.5,1.2-0.8,1.8c0.1,0,0.2,0.1,0.3,0.2
	c0.2,0.2,0.4,0.4,0.3,0.7"/>
<path class="st6" d="M52.4,103.6c0,0.2,0,0.2,0,0.6s0,0.6,0,0.8c0,0.4,0,0.8,0.2,0.8s0.2-0.3,0.2-0.8c0-0.2,0-0.6,0-0.8s0-0.3,0-0.6
	c0-0.3,0.1-0.5,0.3-0.7c0.1-0.1,0.2-0.2,0.4-0.2c-0.3-0.6-0.6-1.2-0.8-1.8c-0.2,0.6-0.5,1.2-0.8,1.8c0.1,0,0.2,0.1,0.3,0.2
	C52.3,103.1,52.4,103.4,52.4,103.6z"/>
<path class="st5" d="M55.9,111.2c-0.3,0-0.6-0.1-0.7-0.3c-0.1-0.2-0.1-0.2-0.3-0.4s-0.4-0.5-0.5-0.6c-0.3-0.3-0.6-0.7-0.7-0.6
	s0.1,0.3,0.3,0.7c0.1,0.2,0.3,0.5,0.4,0.6c0.1,0.2,0.2,0.3,0.3,0.4c0.2,0.2,0.2,0.5,0.1,0.8c0,0.1-0.1,0.3-0.2,0.4
	c0.6,0.3,1.2,0.6,1.8,1c-0.2-0.7-0.3-1.4-0.4-2.1C55.9,111.2,56.1,111.2,55.9,111.2"/>
<path class="st6" d="M55.9,111.2c-0.3,0-0.6-0.1-0.7-0.3c-0.1-0.2-0.1-0.2-0.3-0.4s-0.4-0.5-0.5-0.6c-0.3-0.3-0.6-0.7-0.7-0.6
	s0.1,0.3,0.3,0.7c0.1,0.2,0.3,0.5,0.4,0.6c0.1,0.2,0.2,0.3,0.3,0.4c0.2,0.2,0.2,0.5,0.1,0.8c0,0.1-0.1,0.3-0.2,0.4
	c0.6,0.3,1.2,0.6,1.8,1c-0.2-0.7-0.3-1.4-0.4-2.1C55.9,111.2,56,111.2,55.9,111.2z"/>
<path class="st5" d="M50.6,110.6l0.5-0.6c0.3-0.4,0.4-0.6,0.2-0.7s-0.4,0.2-0.6,0.5c-0.1,0.1-0.4,0.4-0.5,0.6s-0.2,0.3-0.3,0.4
	c-0.2,0.2-0.4,0.3-0.7,0.3c-0.1,0-0.1,0-0.2,0c-0.1,0.7-0.2,1.3-0.4,2c0,0,0.4-0.3,1.7-0.9c-0.1-0.1-0.2-0.3-0.3-0.5
	c-0.1-0.3,0-0.6,0.2-0.8C50.4,110.8,50.5,110.7,50.6,110.6"/>
<path class="st6" d="M50.6,110.6l0.5-0.6c0.3-0.4,0.4-0.6,0.2-0.7s-0.4,0.2-0.6,0.5c-0.1,0.1-0.4,0.4-0.5,0.6s-0.2,0.3-0.3,0.4
	c-0.2,0.2-0.4,0.3-0.7,0.3c-0.1,0-0.1,0-0.2,0c-0.1,0.7-0.2,1.3-0.4,2c0,0,0.4-0.3,1.7-0.9c-0.1-0.1-0.2-0.3-0.3-0.5
	c-0.1-0.3,0-0.6,0.2-0.8C50.4,110.8,50.5,110.7,50.6,110.6z"/>
<path class="st5" d="M48.7,106.5c0.2,0.1,0.3,0.1,0.5,0.2l0.7,0.3c0.4,0.2,0.8,0.2,0.8,0.1s-0.2-0.3-0.7-0.4
	c-0.2-0.1-0.5-0.2-0.7-0.2s-0.3-0.1-0.5-0.2c-0.3-0.1-0.5-0.3-0.5-0.6c-0.1-0.1-0.1-0.3-0.1-0.4c-0.7,0.1-1.3,0.2-2,0.3
	c0.5,0.4,1,0.8,1.4,1.3c0.1-0.2,0.1-0.2,0.3-0.3C48.1,106.4,48.4,106.4,48.7,106.5"/>
<path class="st6" d="M48.7,106.5c0.2,0.1,0.3,0.1,0.5,0.2l0.7,0.3c0.4,0.2,0.8,0.2,0.8,0.1s-0.2-0.3-0.7-0.4
	c-0.2-0.1-0.5-0.2-0.7-0.2s-0.3-0.1-0.5-0.2c-0.3-0.1-0.5-0.3-0.5-0.6c-0.1-0.1-0.1-0.3-0.1-0.4c-0.7,0.1-1.3,0.2-2,0.3
	c0.5,0.4,1,0.8,1.4,1.3c0.1-0.2,0.1-0.2,0.3-0.3C48.1,106.5,48.4,106.4,48.7,106.5z"/>
<path d="M56.9,105c-0.1-0.7-0.6-1.4-1.2-1.8c-0.5-0.4-1.2-0.6-1.9-0.6c-0.5-0.9-0.9-1.8-1.3-2.7c-0.3,0.9-0.7,1.8-1.2,2.7
	c-0.7,0-1.4,0.2-2,0.6c-0.6,0.4-1,1-1.1,1.7c-0.8,0.2-3.1,0.3-3.1,0.3c0.8,0.6,1.5,1.3,2.2,2c-0.2,0.6-0.2,1.3,0,1.9
	c0.2,0.8,0.6,1.4,1.3,1.8c0,0.9-0.7,3-0.6,3c0.8-0.6,1.7-1.1,2.6-1.6c0.5,0.4,1.2,0.6,1.8,0.6c0.7,0,1.4-0.2,1.9-0.6
	c0.8,0.3,2.7,1.6,2.7,1.5c-0.3-1-0.5-2-0.7-3c0.7-0.4,1.2-1.1,1.4-1.9c0.2-0.6,0.2-1.2,0-1.8c0.5-0.7,2.3-2,2.2-2
	C59,105.3,57.9,105.2,56.9,105 M57.5,107c-0.1-0.2-0.2-0.2-0.4-0.4c-0.2-0.1-0.5-0.2-0.8-0.1c-0.2,0.1-0.2,0.1-0.5,0.2l-0.7,0.3
	c-0.4,0.2-0.7,0.2-0.8,0.1c0-0.1,0.2-0.3,0.7-0.5c0.2-0.1,0.5-0.2,0.7-0.2c0.2,0,0.4-0.1,0.5-0.2c0.3-0.1,0.5-0.3,0.5-0.6
	c0-0.1,0-0.2,0-0.3c0.7,0.1,1.5,0.2,2.2,0.2C58.5,106.1,58,106.5,57.5,107 M52.5,101c0.2,0.6,0.5,1.2,0.9,1.8
	c-0.1,0-0.3,0.1-0.4,0.2c-0.2,0.2-0.3,0.4-0.4,0.7c0,0.2,0,0.2,0,0.6s0,0.6,0,0.8c0,0.4-0.1,0.8-0.2,0.8c-0.1,0-0.2-0.3-0.2-0.8
	c0-0.2,0-0.6,0-0.8s0-0.3,0-0.6c0-0.3-0.1-0.5-0.3-0.7c-0.1-0.1-0.2-0.1-0.3-0.2c0.3-0.6,0.6-1.2,0.8-1.8 M47.4,107
	c-0.4-0.5-0.9-0.9-1.4-1.3c0.7-0.1,1.3-0.2,2-0.3c0,0.1,0,0.3,0.1,0.4c0.1,0.3,0.3,0.5,0.5,0.6c0.2,0.1,0.2,0.1,0.5,0.2
	c0.3,0.1,0.5,0.2,0.7,0.2c0.4,0.2,0.7,0.3,0.7,0.4c-0.1,0.1-0.4,0.1-0.8-0.1l-0.7-0.3c-0.2-0.1-0.3-0.2-0.5-0.2
	c-0.3-0.1-0.6-0.1-0.8,0.1C47.5,106.9,47.5,106.8,47.4,107 M48.5,113.3c0.2-0.7,0.3-1.3,0.4-2c0.1,0,0.1,0,0.2,0
	c0.3,0,0.6-0.1,0.7-0.3c0.1-0.2,0.1-0.2,0.3-0.4c0.2-0.3,0.4-0.5,0.5-0.6c0.3-0.3,0.5-0.6,0.6-0.5c0.1,0.1,0,0.3-0.2,0.7l-0.5,0.6
	c-0.2,0.3-0.2,0.2-0.4,0.4c-0.2,0.2-0.2,0.5-0.2,0.8c0,0.2,0.1,0.4,0.3,0.5C48.9,113.1,48.5,113.4,48.5,113.3 M56.3,113.4
	c-0.6-0.4-1.2-0.7-1.8-1c0.1-0.1,0.1-0.2,0.2-0.4c0.1-0.3,0.1-0.6-0.1-0.8c-0.1-0.2-0.1-0.2-0.3-0.4s-0.3-0.5-0.4-0.6
	c-0.2-0.4-0.5-0.7-0.3-0.7s0.4,0.2,0.7,0.6c0.1,0.1,0.4,0.4,0.5,0.6c0.1,0.2,0.2,0.3,0.3,0.4c0.2,0.2,0.4,0.3,0.7,0.3
	c0.1,0,0,0,0.2,0C56,112,56.2,112.7,56.3,113.4 M57.1,109.2c-0.2,0.9-0.8,1.8-1.5,1.8c-0.2,0-0.3-0.1-0.5-0.2
	c-0.1-0.2-0.2-0.3-0.3-0.5c-0.1-0.2-0.2-0.3-0.4-0.4c-0.2-0.2-0.9-1.1-1.3-0.7s0.2,1,0.4,1.3c0.2,0.3,0.2,0.3,0.3,0.5
	s0.2,0.3,0.4,0.4c0.1,0.1,0.1,0.3,0,0.5c-0.2,0.7-1.1,1-2,1c-0.9,0-1.9-0.4-2.1-1c0,0,0-0.1,0-0.1c0-0.1,0-0.3,0.1-0.4l0.1-0.1
	c0.1-0.1,0.2-0.2,0.3-0.3c0.1-0.1,0.2-0.3,0.4-0.4c0.2-0.2,0.8-0.9,0.4-1.2c-0.4-0.3-1,0.5-1.2,0.7s-0.3,0.3-0.4,0.5
	c-0.1,0.1-0.2,0.3-0.3,0.5c-0.1,0.1-0.3,0.2-0.4,0.2c-0.6,0-1.2-0.8-1.5-1.8s-0.3-1.8,0.3-2.1c0.1-0.1,0.3-0.1,0.5-0.1
	c0.2,0.1,0.3,0.2,0.5,0.2l0.5,0.2c0.3,0.1,1.2,0.4,1.4,0s-0.7-0.8-1-0.9l-0.6-0.2c-0.2,0-0.4-0.1-0.6-0.2c-0.2-0.1-0.3-0.2-0.3-0.3
	c-0.3-0.7,0.3-1.4,1-2s1.8-0.8,2.3-0.4c0.1,0.1,0.2,0.3,0.2,0.4c0,0.2,0,0.3-0.1,0.6c-0.1,0.3,0,0.3,0,0.6s0,1.3,0.5,1.3
	c0.5,0,0.5-1,0.5-1.3c0-0.2,0-0.4,0-0.6c0-0.3,0-0.4,0-0.6c0-0.2,0.1-0.3,0.2-0.4c0.5-0.4,1.5-0.1,2.3,0.4c0.8,0.5,1.3,1.3,1,2
	c0,0.2-0.2,0.3-0.3,0.3c-0.2,0.1-0.4,0.1-0.6,0.2c-0.1,0-0.3,0.1-0.5,0.2s-1.2,0.4-1,0.9c0.2,0.5,1.1,0.1,1.4,0l0.5-0.2
	c0.2-0.1,0.3-0.2,0.5-0.2c0.2-0.1,0.3,0,0.5,0.1c0.6,0.3,0.6,1.3,0.4,2.1"/>
<path class="st3" d="M56.8,83c-0.2-0.2-0.5-0.4-0.7-0.6c-1.1-1.4-2.2-2.8-3.2-4.2c-0.1-0.2-0.5-0.3-0.7-0.2c-0.1,0-0.1,0.1-0.2,0.2
	c-1,1.5-2,2.9-3.2,4.2c-0.2,0.2-0.5,0.4-0.7,0.6c-0.2,0.1-0.8,0.6-0.9,1c0,0.2,0,0.4,0.1,0.5c0,0.1,0.2,0.3,0.3,0.5
	c0.7-0.7,1.4-1.4,2.2-2c-0.6,0.9-1.2,1.8-1.9,2.6c0.1,0.3,0.2,0.5,0.3,0.8c0.1,0.2,0.3,0.4,0.5,0.5c0.6-1,1.2-1.9,2-2.8
	c-0.4,1.1-0.9,2.2-1.5,3.2c0.2,0.2,0.5,0.5,0.8,0.7c0.2,0.1,0.4,0.2,0.6,0.2c0.3-1.2,0.7-2.4,1.1-3.5c0,1.2-0.1,2.5-0.3,3.7
	c0.1,0,0.3,0.1,0.5,0.1c0.2,0.1,0.4,0.1,0.5,0.1c0.2,0,0.4-0.1,0.5-0.1c0.2-0.1,0.4-0.1,0.5-0.1c-0.2-1.2-0.3-2.5-0.3-3.7
	c0.4,1.2,0.8,2.3,1.1,3.5c0.2-0.1,0.4-0.1,0.6-0.2c0.3-0.2,0.5-0.4,0.8-0.7c-0.6-1-1.1-2.1-1.5-3.2c0.7,0.9,1.4,1.9,1.9,2.9
	c0.2-0.1,0.3-0.3,0.5-0.5c0.1-0.2,0.2-0.5,0.3-0.8c-0.7-0.8-1.4-1.7-1.9-2.6c0.8,0.6,1.5,1.3,2.2,2c0.1-0.2,0.2-0.4,0.3-0.5
	c0.1-0.2,0.1-0.4,0.1-0.5c0-0.4-0.7-0.9-0.9-1"/>
<path class="st7" d="M56.8,83c-0.2-0.2-0.5-0.4-0.7-0.6c-1.1-1.4-2.2-2.8-3.2-4.2c-0.1-0.2-0.5-0.3-0.7-0.2c-0.1,0-0.1,0.1-0.2,0.2
	c-1,1.5-2,2.9-3.2,4.2c-0.2,0.2-0.5,0.4-0.7,0.6c-0.2,0.1-0.8,0.6-0.9,1c0,0.2,0,0.4,0.1,0.5c0,0.1,0.2,0.3,0.3,0.5
	c0.7-0.7,1.4-1.4,2.2-2c-0.6,0.9-1.2,1.8-1.9,2.6c0.1,0.3,0.2,0.5,0.3,0.8c0.1,0.2,0.3,0.4,0.5,0.5c0.6-1,1.2-1.9,2-2.8
	c-0.4,1.1-0.9,2.2-1.5,3.2c0.2,0.2,0.5,0.5,0.8,0.7c0.2,0.1,0.4,0.2,0.6,0.2c0.3-1.2,0.7-2.4,1.1-3.5c0,1.2-0.1,2.5-0.3,3.7
	c0.1,0,0.3,0.1,0.5,0.1c0.2,0.1,0.4,0.1,0.5,0.1c0.2,0,0.4-0.1,0.5-0.1c0.2-0.1,0.4-0.1,0.5-0.1c-0.2-1.2-0.3-2.5-0.3-3.7
	c0.4,1.2,0.8,2.3,1.1,3.5c0.2-0.1,0.4-0.1,0.6-0.2c0.3-0.2,0.5-0.4,0.8-0.7c-0.6-1-1.1-2.1-1.5-3.2c0.7,0.9,1.4,1.9,1.9,2.9
	c0.2-0.1,0.3-0.3,0.5-0.5c0.1-0.2,0.2-0.5,0.3-0.8c-0.7-0.8-1.4-1.7-1.9-2.6c0.8,0.6,1.5,1.3,2.2,2c0.1-0.2,0.2-0.4,0.3-0.5
	c0.1-0.2,0.1-0.4,0.1-0.5C57.6,83.6,57,83.2,56.8,83z"/>
<path class="st3" d="M50.9,79h-2c0,0-0.2,0-0.2,0c0,0,0,0.3,0,0.3s0.7,1.8,0.7,1.8L50.9,79"/>
<path class="st7" d="M50.9,79h-2c0,0-0.2,0-0.2,0c0,0,0,0.3,0,0.3s0.7,1.8,0.7,1.8L50.9,79z"/>
<path class="st3" d="M56.4,79.3c0,0,0.1-0.2,0-0.3s-0.2,0-0.2,0h-2l1.5,2.1L56.4,79.3"/>
<path class="st7" d="M56.4,79.3c0,0,0.1-0.2,0-0.3s-0.2,0-0.2,0h-2l1.5,2.1L56.4,79.3z"/>
<path class="st3" d="M43.6,83.2c-0.2-0.2-0.5-0.4-0.7-0.6c-1.1-1.4-2.2-2.8-3.1-4.3c-0.1-0.2-0.3-0.3-0.5-0.2
	c-0.2,0-0.4,0.1-0.4,0.2c-1,1.5-2,2.9-3.2,4.3c-0.2,0.2-0.5,0.4-0.7,0.6c-0.2,0.2-0.8,0.6-0.9,1c0,0.2,0,0.4,0.1,0.5
	c0.1,0.2,0.2,0.3,0.3,0.5c0.7-0.7,1.4-1.4,2.2-2c-0.6,0.9-1.2,1.8-1.9,2.6c0.1,0.3,0.2,0.5,0.3,0.8c0.1,0.2,0.3,0.4,0.5,0.5
	c0.6-1,1.2-1.9,1.9-2.7c-0.4,1.1-0.9,2.2-1.5,3.2c0.2,0.2,0.5,0.5,0.8,0.7c0.2,0.1,0.4,0.2,0.7,0.2c0.3-1.2,0.7-2.4,1.1-3.5
	c0,1.2-0.1,2.5-0.3,3.7c0.1,0,0.3,0,0.5,0.1c0.2,0.1,0.4,0.1,0.5,0.1c0.2,0,0.4-0.1,0.5-0.1c0.2-0.1,0.4-0.1,0.5-0.1
	c-0.2-1.2-0.3-2.5-0.3-3.7c0.4,1.2,0.8,2.3,1.1,3.5c0.2-0.1,0.4-0.1,0.6-0.2c0.3-0.2,0.5-0.4,0.8-0.7c-0.6-1-1-2.1-1.5-3.2
	c0.7,0.9,1.4,1.8,2,2.8c0.2-0.1,0.3-0.3,0.5-0.5c0.1-0.2,0.2-0.5,0.3-0.8c-0.7-0.8-1.4-1.7-1.9-2.6c0.8,0.6,1.5,1.3,2.2,2
	c0.1-0.2,0.2-0.4,0.3-0.5c0.1-0.2,0.1-0.4,0.1-0.5C44.5,83.8,43.8,83.4,43.6,83.2"/>
<path class="st7" d="M43.6,83.2c-0.2-0.2-0.5-0.4-0.7-0.6c-1.1-1.4-2.2-2.8-3.1-4.3c-0.1-0.2-0.3-0.3-0.5-0.2
	c-0.2,0-0.4,0.1-0.4,0.2c-1,1.5-2,2.9-3.2,4.3c-0.2,0.2-0.5,0.4-0.7,0.6c-0.2,0.2-0.8,0.6-0.9,1c0,0.2,0,0.4,0.1,0.5
	c0.1,0.2,0.2,0.3,0.3,0.5c0.7-0.7,1.4-1.4,2.2-2c-0.6,0.9-1.2,1.8-1.9,2.6c0.1,0.3,0.2,0.5,0.3,0.8c0.1,0.2,0.3,0.4,0.5,0.5
	c0.6-1,1.2-1.9,1.9-2.7c-0.4,1.1-0.9,2.2-1.5,3.2c0.2,0.2,0.5,0.5,0.8,0.7c0.2,0.1,0.4,0.2,0.7,0.2c0.3-1.2,0.7-2.4,1.1-3.5
	c0,1.2-0.1,2.5-0.3,3.7c0.1,0,0.3,0,0.5,0.1c0.2,0.1,0.4,0.1,0.5,0.1c0.2,0,0.4-0.1,0.5-0.1c0.2-0.1,0.4-0.1,0.5-0.1
	c-0.2-1.2-0.3-2.5-0.3-3.7c0.4,1.2,0.8,2.3,1.1,3.5c0.2-0.1,0.4-0.1,0.6-0.2c0.3-0.2,0.5-0.4,0.8-0.7c-0.6-1-1-2.1-1.5-3.2
	c0.7,0.9,1.4,1.8,2,2.8c0.2-0.1,0.3-0.3,0.5-0.5c0.1-0.2,0.2-0.5,0.3-0.8c-0.7-0.8-1.4-1.7-1.9-2.6c0.8,0.6,1.5,1.3,2.2,2
	c0.1-0.2,0.2-0.4,0.3-0.5c0.1-0.2,0.1-0.4,0.1-0.5C44.4,83.8,43.8,83.4,43.6,83.2z"/>
<path class="st3" d="M37.7,79.2h-2c0,0-0.2,0-0.2,0c-0.1,0,0,0.3,0,0.3s0.7,1.8,0.7,1.8L37.7,79.2"/>
<path class="st7" d="M37.7,79.2h-2c0,0-0.2,0-0.2,0c-0.1,0,0,0.3,0,0.3s0.7,1.8,0.7,1.8L37.7,79.2z"/>
<path class="st3" d="M43.2,79.5c0,0,0.1-0.2,0-0.3c-0.1-0.1-0.2,0-0.2,0h-2l1.6,2.1L43.2,79.5"/>
<path class="st7" d="M43.2,79.5c0,0,0.1-0.2,0-0.3c-0.1-0.1-0.2,0-0.2,0h-2l1.6,2.1L43.2,79.5z"/>
<path class="st3" d="M69.9,83.2c-0.2-0.2-0.5-0.4-0.7-0.6c-1.1-1.4-2.2-2.8-3.2-4.3c-0.2-0.2-0.5-0.3-0.7-0.2
	c-0.1,0-0.1,0.1-0.2,0.2c-1,1.5-2,2.9-3.1,4.3c-0.2,0.2-0.5,0.4-0.7,0.6c-0.2,0.2-0.8,0.6-0.9,1c0,0.2,0,0.4,0.1,0.5
	c0.1,0.1,0.2,0.3,0.3,0.5c0.7-0.7,1.4-1.4,2.2-2c-0.6,0.9-1.2,1.8-1.9,2.6c0.1,0.3,0.2,0.5,0.3,0.8c0.1,0.2,0.3,0.4,0.5,0.5
	c0.6-1,1.3-1.9,2-2.8c-0.4,1.1-0.9,2.2-1.5,3.3c0.2,0.2,0.5,0.5,0.8,0.7c0.2,0.1,0.4,0.2,0.7,0.2c0.3-1.2,0.7-2.4,1.1-3.5
	c0,1.2-0.2,2.5-0.3,3.7c0.1,0,0.3,0,0.5,0.1c0.2,0.1,0.4,0.1,0.5,0.1c0.2,0,0.4-0.1,0.5-0.1c0.2-0.1,0.4-0.1,0.5-0.1
	c-0.2-1.2-0.3-2.5-0.3-3.7c0.4,1.2,0.8,2.3,1.1,3.5c0.2-0.1,0.4-0.1,0.6-0.2c0.3-0.2,0.5-0.4,0.8-0.7c-0.6-1-1-2.1-1.5-3.2
	c0.7,0.9,1.4,1.8,2,2.8c0.2-0.1,0.3-0.3,0.5-0.5c0.1-0.2,0.2-0.5,0.3-0.8c-0.7-0.8-1.4-1.7-1.9-2.6c0.8,0.6,1.5,1.3,2.2,2
	c0.1-0.2,0.2-0.3,0.3-0.5c0.1-0.2,0.1-0.4,0.1-0.5C70.9,83.8,70.2,83.4,69.9,83.2"/>
<path class="st7" d="M69.9,83.2c-0.2-0.2-0.5-0.4-0.7-0.6c-1.1-1.4-2.2-2.8-3.2-4.3c-0.2-0.2-0.5-0.3-0.7-0.2
	c-0.1,0-0.1,0.1-0.2,0.2c-1,1.5-2,2.9-3.1,4.3c-0.2,0.2-0.5,0.4-0.7,0.6c-0.2,0.2-0.8,0.6-0.9,1c0,0.2,0,0.4,0.1,0.5
	c0.1,0.1,0.2,0.3,0.3,0.5c0.7-0.7,1.4-1.4,2.2-2c-0.6,0.9-1.2,1.8-1.9,2.6c0.1,0.3,0.2,0.5,0.3,0.8c0.1,0.2,0.3,0.4,0.5,0.5
	c0.6-1,1.3-1.9,2-2.8c-0.4,1.1-0.9,2.2-1.5,3.3c0.2,0.2,0.5,0.5,0.8,0.7c0.2,0.1,0.4,0.2,0.7,0.2c0.3-1.2,0.7-2.4,1.1-3.5
	c0,1.2-0.2,2.5-0.3,3.7c0.1,0,0.3,0,0.5,0.1c0.2,0.1,0.4,0.1,0.5,0.1c0.2,0,0.4-0.1,0.5-0.1c0.2-0.1,0.4-0.1,0.5-0.1
	c-0.2-1.2-0.3-2.5-0.3-3.7c0.4,1.2,0.8,2.3,1.1,3.5c0.2-0.1,0.4-0.1,0.6-0.2c0.3-0.2,0.5-0.4,0.8-0.7c-0.6-1-1-2.1-1.5-3.2
	c0.7,0.9,1.4,1.8,2,2.8c0.2-0.1,0.3-0.3,0.5-0.5c0.1-0.2,0.2-0.5,0.3-0.8c-0.7-0.8-1.4-1.7-1.9-2.6c0.8,0.6,1.5,1.3,2.2,2
	c0.1-0.2,0.2-0.3,0.3-0.5c0.1-0.2,0.1-0.4,0.1-0.5C70.8,83.8,70.2,83.4,69.9,83.2z"/>
<path class="st3" d="M64,79.2h-2c0,0-0.2,0-0.2,0s0,0.3,0,0.3l0.6,1.8L64,79.2"/>
<path class="st7" d="M64,79.2h-2c0,0-0.2,0-0.2,0s0,0.3,0,0.3l0.6,1.8L64,79.2z"/>
<path class="st3" d="M69.5,79.5c0,0,0.1-0.2,0-0.3s-0.2,0-0.2,0h-2l1.5,2.1L69.5,79.5"/>
<path class="st7" d="M69.5,79.5c0,0,0.1-0.2,0-0.3s-0.2,0-0.2,0h-2l1.5,2.1L69.5,79.5z"/>
<path d="M44.2,82.8L44.2,82.8c-0.2-0.2-0.5-0.4-0.7-0.6c-0.1-0.1-0.2-0.3-0.5-0.6l0,0l0.8-2c0-0.1,0.1-0.3,0.1-0.4
	c0-0.1,0-0.2-0.1-0.3c-0.1-0.2-0.3-0.3-0.5-0.2h-2.5c-0.1-0.2-0.2-0.4-0.3-0.6c-0.2-0.4-0.6-0.7-1.1-0.7c-0.5-0.1-0.9,0.2-1.1,0.7
	c-0.1,0.2-0.2,0.4-0.3,0.6h-2.5c-0.2,0-0.4,0.1-0.5,0.2c-0.1,0.1-0.1,0.2-0.1,0.4c0,0.1,0,0.3,0.1,0.4l0.8,2l0,0l-0.5,0.6
	c-0.2,0.2-0.4,0.4-0.7,0.6c-0.6,0.3-1,0.9-1,1.6l0,0c0.1,0.5,0.2,1,0.5,1.4l0.1,0.2c0.2,0.5,0.5,1,0.8,1.5c0.6,0.6,1.2,1.1,1.8,1.6
	c0.3,0.1,0.7,0.3,1,0.3h0.1c0.5,0.2,1,0.3,1.5,0.3c0.5-0.1,1-0.2,1.5-0.3h0.1c0.4-0.1,0.7-0.2,1.1-0.3c0.7-0.5,1.3-1,1.8-1.6
	c0.3-0.5,0.6-1,0.8-1.5l0.1-0.2c0.3-0.4,0.5-0.9,0.5-1.4l0,0C45.1,83.6,44.8,83.1,44.2,82.8 M42,83.3c0.6,0.9,1.2,1.8,1.9,2.6
	c-0.1,0.3-0.2,0.5-0.3,0.8c-0.1,0.2-0.3,0.3-0.4,0.5c-0.6-1-1.3-1.9-2-2.8l0,0l0,0c0.4,1.1,0.9,2.1,1.4,3.1v0.1
	c-0.2,0.2-0.5,0.4-0.8,0.7c-0.2,0.1-0.4,0.2-0.6,0.2c-0.3-1.2-0.7-2.4-1.1-3.5l0,0c0,0.1,0,0.1,0,0.2c0,0.7,0.3,3.4,0.3,3.5h-0.2
	l-0.3,0.1l-0.1,0.1c-0.1,0-0.3,0.1-0.4,0.1c-0.1,0-0.3-0.1-0.4-0.1l-0.1-0.1l-0.3-0.1h-0.2c0-0.2,0.4-2.8,0.4-3.5c0-0.2,0-0.2,0-0.2
	l0,0c-0.5,1.1-0.8,2.3-1.1,3.5c-0.2-0.1-0.4-0.1-0.6-0.2c-0.3-0.2-0.5-0.4-0.8-0.7c0,0,0-0.1,0-0.1c0.5-1,1-2,1.4-3.1l0,0l0,0
	c-0.2-0.1-1.9,2.6-2,2.8c-0.2-0.1-0.3-0.3-0.4-0.5c-0.1-0.2-0.2-0.5-0.3-0.8c0.7-0.8,1.3-1.7,1.9-2.6l0,0l0,0
	c-0.8,0.6-1.5,1.3-2.2,2L34.4,85l-0.2-0.3c-0.1-0.1-0.1-0.3-0.1-0.4v-0.1c0-0.3,0.3-0.7,0.9-1c0.2-0.2,0.4-0.3,0.6-0.5l0.1-0.1
	c1.1-1.4,2.2-2.8,3.2-4.3c0.1-0.2,0.3-0.2,0.4-0.2c0.2,0,0.3,0.1,0.4,0.2c1,1.5,2,2.9,3.2,4.3l0.1,0.1c0.2,0.2,0.4,0.4,0.6,0.5
	c0.3,0.2,0.8,0.6,0.9,1v0.1c0,0.1,0,0.3-0.1,0.4L44.2,85c0,0-0.1,0.2-0.1,0.2c-0.7-0.7-1.4-1.4-2.2-2l0,0l0,0 M41.1,79.1h2
	c0.2,0,0.2,0,0.2,0v0.1c0,0.1,0,0.1,0,0.2l-0.7,1.7L41.1,79.1 M37.7,79.1c0,0-1.5,2-1.5,2l-0.7-1.7c0-0.1,0-0.1,0-0.2v-0.1
	c0,0,0,0,0.2,0L37.7,79.1"/>
<path d="M57.4,82.6L57.4,82.6c-0.2-0.2-0.5-0.3-0.7-0.5c-0.1-0.1-0.2-0.3-0.5-0.6l0,0l0.8-2c0.1-0.1,0.1-0.3,0.1-0.4
	c0-0.1,0-0.2-0.1-0.3c-0.1-0.2-0.3-0.3-0.5-0.2H54c-0.1-0.2-0.2-0.4-0.3-0.6c-0.2-0.4-0.6-0.7-1-0.7c-0.5,0-0.9,0.2-1.1,0.7
	c-0.1,0.2-0.2,0.4-0.3,0.6h-2.6c-0.2,0-0.4,0.1-0.5,0.2C48,78.9,48,79,48,79.1c0,0.1,0,0.3,0.1,0.4l0.8,2l0,0
	c-0.2,0.3-0.4,0.5-0.5,0.6s-0.5,0.4-0.7,0.5c-0.6,0.3-1,0.9-1,1.5l0,0c0.1,0.5,0.2,1,0.5,1.4l0.1,0.2c0.2,0.5,0.5,1,0.8,1.5
	c0.6,0.6,1.2,1.1,1.8,1.6c0.3,0.1,0.7,0.2,1.1,0.3h0.1c0.5,0.2,1,0.3,1.5,0.4c0.5-0.1,1-0.2,1.5-0.4h0.1c0.4-0.1,0.7-0.2,1.1-0.3
	c0.7-0.5,1.3-1,1.8-1.6c0.3-0.5,0.6-1,0.8-1.5l0.1-0.2c0.3-0.4,0.4-0.9,0.5-1.3l0,0C58.3,83.5,58,82.9,57.4,82.6 M55.2,83.2
	c0.6,0.9,1.2,1.8,1.9,2.6c-0.1,0.3-0.2,0.5-0.3,0.8c-0.1,0.2-0.3,0.3-0.4,0.5c-0.6-1-1.2-1.9-2-2.8l0,0l0,0c0.4,1.1,0.9,2.1,1.4,3.1
	v0.1c-0.2,0.2-0.5,0.4-0.8,0.6c-0.2,0.1-0.4,0.2-0.6,0.2c-0.3-1.2-0.7-2.4-1.1-3.5l0,0c0,0,0,0,0,0.2c0,0.8,0.3,3.4,0.3,3.5h-0.2
	l-0.3,0.1H53c-0.1,0-0.3,0.1-0.4,0.1c-0.1,0-0.3,0-0.4-0.1h-0.1l-0.3-0.1h-0.2c0-0.2,0.4-2.8,0.4-3.5c0-0.2,0-0.2,0-0.2l0,0
	c-0.5,1.1-0.8,2.3-1.1,3.5c-0.2,0-0.4-0.1-0.6-0.2c-0.3-0.2-0.5-0.4-0.8-0.6v-0.1c0.5-1,1-2,1.4-3.1l0,0c-0.8,0.9-1.4,1.8-2,2.8
	c-0.2-0.1-0.3-0.3-0.4-0.5c-0.1-0.2-0.2-0.5-0.3-0.8c0.7-0.8,1.4-1.7,1.9-2.6l0,0l0,0c-0.8,0.6-1.5,1.3-2.2,2L47.7,85l-0.3-0.4
	c-0.1-0.1-0.1-0.3-0.1-0.4v-0.1c0-0.3,0.3-0.7,0.9-1c0.2-0.2,0.4-0.3,0.6-0.5l0.1-0.1c1.1-1.4,2.2-2.8,3.1-4.3
	c0.1-0.2,0.3-0.3,0.4-0.2c0.2,0,0.4,0.1,0.4,0.2c1,1.5,2,2.9,3.2,4.3l0.1,0.1c0.2,0.2,0.4,0.4,0.6,0.5c0.3,0.2,0.8,0.6,0.9,1v0.1
	c0,0.1,0,0.3-0.1,0.4l-0.1,0.3c0,0-0.1,0.1-0.1,0.2c-0.7-0.7-1.4-1.4-2.2-2l0,0l0,0 M54.2,79h2c0.2,0,0.2,0,0.2,0v0.1v0.2L55.7,81
	L54.2,79 M50.8,79c0,0-1.4,2-1.5,2l-0.7-1.7c0-0.1,0-0.1,0-0.2V79c0,0,0,0,0.2,0L50.8,79"/>
<path d="M70.5,82.8L70.5,82.8c-0.2-0.2-0.5-0.4-0.7-0.6l-0.5-0.6l0,0l0.8-2c0.1-0.1,0.1-0.3,0.1-0.4c0-0.3-0.3-0.6-0.6-0.6
	c0,0,0,0,0,0H67c-0.1-0.2-0.2-0.4-0.3-0.6c-0.3-0.6-1-0.8-1.6-0.5c-0.2,0.1-0.4,0.3-0.5,0.5c-0.1,0.2-0.2,0.4-0.3,0.6h-2.5
	c-0.3,0-0.6,0.2-0.6,0.5c0,0,0,0.1,0,0.1c0,0.1,0,0.3,0.1,0.4l0.8,2l0,0l-0.5,0.6c-0.2,0.2-0.4,0.4-0.7,0.6c-0.6,0.3-0.9,0.9-1,1.5
	l0,0c0.1,0.5,0.2,1,0.5,1.4l0.1,0.2c0.2,0.5,0.5,1,0.8,1.5c0.6,0.6,1.2,1.1,1.8,1.6c0.3,0.1,0.7,0.2,1,0.3h0.1
	c0.5,0.2,1,0.3,1.5,0.3c0.5-0.1,1-0.2,1.4-0.3h0.1c0.4-0.1,0.7-0.2,1.1-0.3c0.7-0.5,1.3-1,1.8-1.6c0.3-0.5,0.6-1,0.8-1.5l0.1-0.2
	c0.3-0.4,0.5-0.9,0.5-1.4l0,0C71.5,83.6,71.1,83,70.5,82.8 M68.3,83.2c0.6,0.9,1.2,1.8,1.9,2.6c-0.1,0.3-0.2,0.5-0.3,0.8
	c-0.1,0.2-0.3,0.3-0.4,0.5c-0.6-1-1.3-1.9-2-2.8l0,0l0,0c0.4,1.1,0.9,2.1,1.4,3.1v0.1c-0.2,0.2-0.5,0.4-0.8,0.7
	c-0.2,0.1-0.4,0.2-0.6,0.2c-0.3-1.1-0.7-2.3-1.1-3.4l0,0c0,0.1,0,0.1,0,0.2c0,0.7,0.3,3.4,0.3,3.5h-0.2l-0.3,0.1l-0.1,0.1
	c-0.1,0-0.3,0.1-0.4,0.1c-0.1,0-0.3,0-0.4-0.1l-0.1-0.1l-0.3-0.1h-0.2c0-0.2,0.3-2.8,0.3-3.5c0-0.1,0-0.1,0-0.2l0,0
	c-0.5,1.1-0.8,2.3-1.1,3.5c-0.2-0.1-0.4-0.1-0.6-0.2c-0.3-0.2-0.5-0.4-0.8-0.7c0,0,0-0.1,0-0.1c0.5-1,1-2,1.4-3.1l0,0
	c-0.2-0.1-1.9,2.6-2,2.8c-0.2-0.1-0.3-0.3-0.4-0.5c-0.1-0.2-0.2-0.5-0.3-0.8c0.7-0.8,1.4-1.7,1.9-2.6l0,0l0,0
	c-0.8,0.6-1.5,1.3-2.2,2l-0.1-0.2l-0.2-0.3c-0.1-0.1-0.1-0.3-0.1-0.4v-0.1c0-0.3,0.3-0.7,0.8-1c0.2-0.2,0.4-0.3,0.6-0.5
	c0,0,0.1-0.1,0.1-0.1c1.1-1.4,2.2-2.8,3.1-4.3c0.1-0.2,0.3-0.3,0.4-0.2c0.2,0,0.3,0.1,0.4,0.2c1,1.5,2,2.9,3.2,4.3l0.1,0.1
	c0.2,0.2,0.4,0.4,0.6,0.5c0.3,0.2,0.8,0.6,0.9,1v0.1c0,0.1,0,0.3-0.1,0.4l-0.2,0.3l-0.1,0.2c-0.7-0.7-1.4-1.4-2.2-2l0,0l0,0
	 M67.5,79.3h2c0.1,0,0.2,0,0.2,0v0.1v0.2l-0.7,1.7L67.5,79.3 M64.2,79.2l-1.5,2L62,79.5c0-0.1,0-0.1,0-0.2v-0.1c0,0,0,0,0.2,0
	L64.2,79.2"/>
</svg>
